# xmcd
# Track frame offsets:
# 150
# 21157
# 48464
# 68903
# 104562
# 124227
# 154553
# 196425
# 228921
#
# Disc length: 3366 seconds
# Revision: 0
# Processed by: cddbd v1.4PL0 Copyright (c) Steve Scherf et al.
# Submitted via: VisiTrax 2.9.5.180 - For more info visit www.synapsa.com
#
DISCID=770d2409
DTITLE=Eric Clapton - One More Car One More Rider CD2
DYEAR=2002
DGENRE=
TTITLE0=I Want A Little Girl
TTITLE1=Badge
TTITLE2=Hootchie Coochie Man
TTITLE3=Have You Ever Loved A Woman
TTITLE4=Cocaine
TTITLE5=Wonderful Tonight
TTITLE6=Layla
TTITLE7=Sunshine Of Your Love
TTITLE8=Over The Rainbow
EXTD=
EXTT0=
EXTT1=
EXTT2=
EXTT3=
EXTT4=
EXTT5=
EXTT6=
EXTT7=
EXTT8=
PLAYORDER=
